<?xml version="1.0" encoding="UTF-8"?>
<svg xmlns="http://www.w3.org/2000/svg" width="1600" height="900" viewBox="0 0 1600 900" role="img" aria-labelledby="title desc">
  <title id="title">Wireflow · programar una campaña sanitaria</title><desc id="desc">Administrador ganadero · César Flores · US-07 · US-26 · US-27. Secuencia de pantallas con rutas alternativas conectadas.</desc>
  <defs><marker id="arrow" viewBox="0 0 10 10" refX="8" refY="5" markerWidth="8" markerHeight="8" orient="auto-start-reverse"><path d="M 0 0 L 10 5 L 0 10 z" fill="#244a37"/></marker><marker id="arrow-muted" viewBox="0 0 10 10" refX="8" refY="5" markerWidth="8" markerHeight="8" orient="auto-start-reverse"><path d="M 0 0 L 10 5 L 0 10 z" fill="#68736b"/></marker></defs>
  <rect width="1600" height="900" fill="#f3efdf"/>
  <text x="58" y="55" text-anchor="start" font-family="Arial, sans-serif" font-size="15" font-weight="700" fill="#244a37">ICHU  /  WEB APPLICATION</text>
  <text x="58" y="105" text-anchor="start" font-family="Arial, sans-serif" font-size="34" font-weight="700" fill="#183326">Wireflow · programar una campaña sanitaria</text>
  <text x="60" y="143" text-anchor="start" font-family="Arial, sans-serif" font-size="17" font-weight="400" fill="#68736b">Administrador ganadero · César Flores · US-07 · US-26 · US-27. Secuencia de pantallas con rutas alternativas conectadas.</text>
  <line x1="58" y1="165" x2="1542" y2="165" stroke="#dedbd0" stroke-width="2"/>
  <rect x="55" y="190" width="1490" height="390" rx="15" fill="#fbfaf5" stroke="#dedbd0"/>
    <text x="78" y="207" text-anchor="start" font-family="Arial, sans-serif" font-size="13" font-weight="700" fill="#244a37">Administrador ganadero · César Flores</text><g>
    <rect x="55" y="220" width="330" height="322" rx="12" fill="#fffefa" stroke="#dedbd0" stroke-width="2"/>
    <text x="71" y="250" text-anchor="start" font-family="Arial, sans-serif" font-size="11" font-weight="700" fill="#97751f">01 · INVENTARIO</text>
    <text x="71" y="278" text-anchor="start" font-family="Arial, sans-serif" font-size="20" font-weight="700" fill="#183326">Animales</text>
    <rect x="67" y="292" width="306" height="238" rx="8" fill="white" stroke="#dedbd0"/>
    <rect x="67" y="292" width="306" height="25" rx="8" fill="#efeee8"/>
    <circle cx="82" cy="304" r="3" fill="#c8c7bf"/><circle cx="94" cy="304" r="3" fill="#c8c7bf"/><circle cx="106" cy="304" r="3" fill="#c8c7bf"/>
    <rect x="68" y="317" width="62" height="212" fill="#f0efe9"/>
    <rect x="77" y="331" width="34" height="10" rx="4" fill="#d8d5c8"/>
    <rect x="76" y="359" width="44" height="8" rx="4" fill="#e9eee6"/><rect x="76" y="378" width="38" height="7" rx="3" fill="#d9d9d2"/><rect x="76" y="397" width="40" height="7" rx="3" fill="#d9d9d2"/>
    <rect x="143" y="326" width="220" height="31" rx="7" fill="#fbfaf6" stroke="#dedbd0"/><text x="153" y="345" text-anchor="start" font-family="Arial, sans-serif" font-size="10" font-weight="600" fill="#68736b">Buscar por arete o nombre</text><rect x="143" y="368" width="220" height="110" rx="7" fill="#fbfaf6" stroke="#dedbd0"/><text x="153" y="387" text-anchor="start" font-family="Arial, sans-serif" font-size="10" font-weight="600" fill="#68736b">Inventario de animales</text><rect x="152" y="400" width="92" height="8" rx="4" fill="#c7ccc4"/><rect x="152" y="414" width="135" height="6" rx="4" fill="#e1e2dc"/><rect x="303" y="403" width="48" height="17" rx="8" fill="#f8f0d7"/><text x="327" y="415" text-anchor="middle" font-family="Arial, sans-serif" font-size="8" font-weight="600" fill="#80641e">Pendiente</text><rect x="152" y="444" width="92" height="8" rx="4" fill="#c7ccc4"/><rect x="152" y="458" width="135" height="6" rx="4" fill="#e1e2dc"/><rect x="303" y="447" width="48" height="17" rx="8" fill="#f8f0d7"/><text x="327" y="459" text-anchor="middle" font-family="Arial, sans-serif" font-size="8" font-weight="600" fill="#80641e">Pendiente</text>
  </g>
<g>
    <rect x="445" y="220" width="330" height="322" rx="12" fill="#fffefa" stroke="#dedbd0" stroke-width="2"/>
    <text x="461" y="250" text-anchor="start" font-family="Arial, sans-serif" font-size="11" font-weight="700" fill="#97751f">02 · CALENDARIO</text>
    <text x="461" y="278" text-anchor="start" font-family="Arial, sans-serif" font-size="20" font-weight="700" fill="#183326">Planificación sanitaria</text>
    <rect x="457" y="292" width="306" height="238" rx="8" fill="white" stroke="#dedbd0"/>
    <rect x="457" y="292" width="306" height="25" rx="8" fill="#efeee8"/>
    <circle cx="472" cy="304" r="3" fill="#c8c7bf"/><circle cx="484" cy="304" r="3" fill="#c8c7bf"/><circle cx="496" cy="304" r="3" fill="#c8c7bf"/>
    <rect x="458" y="317" width="62" height="212" fill="#f0efe9"/>
    <rect x="467" y="331" width="34" height="10" rx="4" fill="#d8d5c8"/>
    <rect x="466" y="359" width="44" height="8" rx="4" fill="#e9eee6"/><rect x="466" y="378" width="38" height="7" rx="3" fill="#d9d9d2"/><rect x="466" y="397" width="40" height="7" rx="3" fill="#d9d9d2"/>
    <rect x="533" y="326" width="220" height="42" rx="7" fill="#fbfaf6" stroke="#dedbd0"/><text x="543" y="345" text-anchor="start" font-family="Arial, sans-serif" font-size="10" font-weight="600" fill="#68736b">Campañas · seguimientos</text><rect x="533" y="380" width="220" height="100" rx="7" fill="#fbfaf6" stroke="#dedbd0"/><text x="543" y="399" text-anchor="start" font-family="Arial, sans-serif" font-size="10" font-weight="600" fill="#68736b">Calendario del hato</text><rect x="542" y="410" width="92" height="8" rx="4" fill="#c7ccc4"/><rect x="542" y="424" width="135" height="6" rx="4" fill="#e1e2dc"/><rect x="693" y="413" width="48" height="17" rx="8" fill="#f8f0d7"/><text x="717" y="425" text-anchor="middle" font-family="Arial, sans-serif" font-size="8" font-weight="600" fill="#80641e">Pendiente</text><rect x="542" y="452" width="92" height="8" rx="4" fill="#c7ccc4"/><rect x="542" y="466" width="135" height="6" rx="4" fill="#e1e2dc"/><rect x="693" y="455" width="48" height="17" rx="8" fill="#f8f0d7"/><text x="717" y="467" text-anchor="middle" font-family="Arial, sans-serif" font-size="8" font-weight="600" fill="#80641e">Pendiente</text>
  </g>
<g>
    <rect x="835" y="220" width="330" height="322" rx="12" fill="#fffefa" stroke="#dedbd0" stroke-width="2"/>
    <text x="851" y="250" text-anchor="start" font-family="Arial, sans-serif" font-size="11" font-weight="700" fill="#97751f">03 · FORMULARIO</text>
    <text x="851" y="278" text-anchor="start" font-family="Arial, sans-serif" font-size="20" font-weight="700" fill="#183326">Nueva campaña</text>
    <rect x="847" y="292" width="306" height="238" rx="8" fill="white" stroke="#dedbd0"/>
    <rect x="847" y="292" width="306" height="25" rx="8" fill="#efeee8"/>
    <circle cx="862" cy="304" r="3" fill="#c8c7bf"/><circle cx="874" cy="304" r="3" fill="#c8c7bf"/><circle cx="886" cy="304" r="3" fill="#c8c7bf"/>
    <rect x="848" y="317" width="62" height="212" fill="#f0efe9"/>
    <rect x="857" y="331" width="34" height="10" rx="4" fill="#d8d5c8"/>
    <rect x="856" y="359" width="44" height="8" rx="4" fill="#e9eee6"/><rect x="856" y="378" width="38" height="7" rx="3" fill="#d9d9d2"/><rect x="856" y="397" width="40" height="7" rx="3" fill="#d9d9d2"/>
    <text x="923" y="329" text-anchor="start" font-family="Arial, sans-serif" font-size="11" font-weight="700" fill="#68736b">Nueva campaña sanitaria</text><rect x="923" y="341" width="220" height="27" rx="7" fill="#fbfaf6" stroke="#dedbd0"/><text x="933" y="360" text-anchor="start" font-family="Arial, sans-serif" font-size="10" font-weight="600" fill="#68736b">Tipo · fecha</text><rect x="923" y="377" width="220" height="27" rx="7" fill="#fbfaf6" stroke="#dedbd0"/><text x="933" y="396" text-anchor="start" font-family="Arial, sans-serif" font-size="10" font-weight="600" fill="#68736b">Lote · animales</text><rect x="923" y="413" width="220" height="30" rx="7" fill="#fbfaf6" stroke="#dedbd0"/><text x="933" y="432" text-anchor="start" font-family="Arial, sans-serif" font-size="10" font-weight="600" fill="#68736b">Anticipación del aviso</text><rect x="923" y="457" width="110" height="24" rx="5" fill="#d7ad38"/><text x="978" y="473" text-anchor="middle" font-family="Arial, sans-serif" font-size="9" font-weight="700" fill="#183326">Guardar campaña</text>
  </g>
<g>
    <rect x="1225" y="220" width="330" height="322" rx="12" fill="#fffefa" stroke="#dedbd0" stroke-width="2"/>
    <text x="1241" y="250" text-anchor="start" font-family="Arial, sans-serif" font-size="11" font-weight="700" fill="#97751f">04 · RESULTADO</text>
    <text x="1241" y="278" text-anchor="start" font-family="Arial, sans-serif" font-size="20" font-weight="700" fill="#183326">Campaña programada</text>
    <rect x="1237" y="292" width="306" height="238" rx="8" fill="white" stroke="#dedbd0"/>
    <rect x="1237" y="292" width="306" height="25" rx="8" fill="#efeee8"/>
    <circle cx="1252" cy="304" r="3" fill="#c8c7bf"/><circle cx="1264" cy="304" r="3" fill="#c8c7bf"/><circle cx="1276" cy="304" r="3" fill="#c8c7bf"/>
    <rect x="1238" y="317" width="62" height="212" fill="#f0efe9"/>
    <rect x="1247" y="331" width="34" height="10" rx="4" fill="#d8d5c8"/>
    <rect x="1246" y="359" width="44" height="8" rx="4" fill="#e9eee6"/><rect x="1246" y="378" width="38" height="7" rx="3" fill="#d9d9d2"/><rect x="1246" y="397" width="40" height="7" rx="3" fill="#d9d9d2"/>
    <rect x="1313" y="326" width="220" height="54" rx="7" fill="#fbfaf6" stroke="#dedbd0"/><text x="1323" y="345" text-anchor="start" font-family="Arial, sans-serif" font-size="10" font-weight="600" fill="#68736b">Campaña · Programada</text><rect x="1313" y="391" width="220" height="52" rx="7" fill="#fbfaf6" stroke="#dedbd0"/><text x="1323" y="410" text-anchor="start" font-family="Arial, sans-serif" font-size="10" font-weight="600" fill="#68736b">Lote · fecha · avance</text><rect x="1313" y="454" width="220" height="32" rx="7" fill="#fbfaf6" stroke="#dedbd0"/><text x="1323" y="473" text-anchor="start" font-family="Arial, sans-serif" font-size="10" font-weight="600" fill="#68736b">Recordatorio y pendientes</text>
  </g><path d="M 387 385 H 441" fill="none" stroke="#244a37" stroke-width="3" marker-end="url(#arrow)"/><text x="414" y="365" text-anchor="middle" font-family="Arial, sans-serif" font-size="12" font-weight="600" fill="#244a37">Abrir planificación</text>
<path d="M 777 385 H 831" fill="none" stroke="#244a37" stroke-width="3" marker-end="url(#arrow)"/><text x="804" y="365" text-anchor="middle" font-family="Arial, sans-serif" font-size="12" font-weight="600" fill="#244a37">Crear campaña</text>
<path d="M 1167 385 H 1221" fill="none" stroke="#244a37" stroke-width="3" marker-end="url(#arrow)"/><text x="1194" y="365" text-anchor="middle" font-family="Arial, sans-serif" font-size="12" font-weight="600" fill="#244a37">Guardar y revisar</text><path d="M 1000 542 V 575 H 415 V 612" fill="none" stroke="#68736b" stroke-width="2.5" marker-end="url(#arrow-muted)"/><text x="707.5" y="567" text-anchor="middle" font-family="Arial, sans-serif" font-size="12" font-weight="700" fill="#68736b">Datos incompletos</text><rect x="85" y="612" width="660" height="178" rx="12" fill="#f9eeea" stroke="#e8d0c7" stroke-width="2"/><text x="109" y="646" text-anchor="start" font-family="Arial, sans-serif" font-size="18" font-weight="700" fill="#a64a40">Señalar campos por corregir</text><text x="109" y="679" text-anchor="start" font-family="Arial, sans-serif" font-size="15" font-weight="400" fill="#202a23"><tspan x="109" dy="0">Conservar lote, tipo y fecha ya ingresados.</tspan><tspan x="109" dy="23">No crear la campaña hasta que los datos sean válidos.</tspan></text><path d="M 415 790 V 835 H 1000 V 548" fill="none" stroke="#68736b" stroke-width="2" stroke-dasharray="7 7" marker-end="url(#arrow-muted)"/><text x="707.5" y="830" text-anchor="middle" font-family="Arial, sans-serif" font-size="11" font-weight="600" fill="#68736b">Volver a la pantalla</text>
<path d="M 1000 542 V 575 H 1165 V 612" fill="none" stroke="#68736b" stroke-width="2.5" marker-end="url(#arrow-muted)"/><text x="1082.5" y="567" text-anchor="middle" font-family="Arial, sans-serif" font-size="12" font-weight="700" fill="#68736b">Retiro vigente</text><rect x="835" y="612" width="660" height="178" rx="12" fill="#f8f0d7" stroke="#e6d9ad" stroke-width="2"/><text x="859" y="646" text-anchor="start" font-family="Arial, sans-serif" font-size="18" font-weight="700" fill="#80641e">Advertir animales afectados</text><text x="859" y="679" text-anchor="start" font-family="Arial, sans-serif" font-size="15" font-weight="400" fill="#202a23"><tspan x="859" dy="0">Mostrar producto, periodo y animales involucrados.</tspan><tspan x="859" dy="23">La advertencia acompaña la revisión antes de guardar.</tspan></text>
    <text x="60" y="865" text-anchor="start" font-family="Arial, sans-serif" font-size="14" font-weight="600" fill="#68736b">Historias relacionadas: US-07 · US-26 · US-27</text>
    <text x="1540" y="865" text-anchor="end" font-family="Arial, sans-serif" font-size="13" font-weight="400" fill="#68736b">Pantalla esquemática · navegación web</text>
</svg>